<?xml version="1.0" standalone="no"?>
<!DOCTYPE svg PUBLIC "-//W3C//DTD SVG 20010904//EN"
 "http://www.w3.org/TR/2001/REC-SVG-20010904/DTD/svg10.dtd">
<svg version="1.0" xmlns="http://www.w3.org/2000/svg"
 width="774.000000pt" height="885.000000pt" viewBox="0 0 774.000000 885.000000"
 preserveAspectRatio="xMidYMid meet">
<metadata>
Created by potrace 1.16, written by Peter Selinger 2001-2019
</metadata>
<g transform="translate(0.000000,885.000000) scale(0.100000,-0.100000)"
fill="#000000" stroke="none">
<path d="M1840 8839 c-424 -44 -781 -167 -1070 -370 -96 -67 -254 -221 -335
-324 -217 -278 -361 -662 -417 -1115 -18 -141 -18 -781 0 -950 79 -761 270
-1417 617 -2115 493 -990 1263 -1930 2259 -2755 540 -448 1192 -883 1716
-1145 l135 -68 -125 124 c-142 141 -229 246 -335 404 -235 352 -364 733 -382
1128 -4 100 -9 137 -19 137 -7 0 -14 6 -17 13 -3 9 -7 9 -20 -2 -17 -13 -22
-7 -18 21 0 4 -6 5 -13 2 -8 -3 -12 -12 -9 -20 3 -9 0 -14 -8 -12 -8 2 -13 -3
-11 -9 3 -16 -14 -17 -24 -2 -4 8 -9 7 -16 -2 -8 -11 -9 -11 -5 1 2 8 9 15 15
15 5 0 14 3 18 7 4 5 2 8 -4 8 -5 0 -17 3 -26 6 -12 4 -16 0 -16 -16 0 -17 -4
-21 -17 -15 -10 4 -24 8 -30 8 -7 0 -13 8 -13 18 0 12 5 16 15 13 8 -4 15 -10
15 -15 0 -5 5 -9 10 -9 15 0 12 27 -2 27 -7 0 -21 4 -30 8 -14 6 -18 2 -18
-18 0 -21 -4 -25 -27 -23 -56 6 -91 25 -69 38 8 6 8 8 0 8 -6 0 -9 10 -7 24 3
13 0 27 -6 30 -6 4 -11 0 -11 -8 0 -9 -5 -16 -11 -16 -6 0 -8 7 -5 16 4 10 2
13 -6 8 -7 -5 -9 -2 -5 9 4 12 2 14 -10 10 -13 -5 -14 -3 -3 16 10 20 9 22 -7
19 -10 -2 -18 -8 -18 -15 0 -6 -3 -15 -8 -19 -4 -4 -7 -2 -7 5 0 8 -6 11 -16
7 -12 -4 -15 -2 -10 9 3 8 1 15 -4 15 -6 0 -6 9 -1 22 5 13 14 22 20 21 6 -2
8 5 4 15 -3 9 -3 14 2 10 4 -4 16 7 25 25 13 23 14 34 6 39 -7 5 -7 8 -1 8 6
0 16 -5 23 -12 9 -9 12 -9 12 3 0 9 22 22 58 34 31 10 62 23 67 27 6 6 2 6
-10 2 l-20 -7 20 16 c18 14 21 14 27 -1 4 -9 7 -11 7 -4 1 6 4 11 9 10 7 -1
20 3 92 32 41 17 69 21 157 23 l31 1 46 140 c51 153 152 372 235 505 28 46 50
85 49 86 -2 1 -22 12 -45 24 -66 33 -134 29 -217 -14 -79 -40 -88 -41 -213
-16 -116 23 -148 18 -289 -50 -107 -51 -111 -52 -210 -54 -55 -2 -110 -6 -122
-9 -15 -5 -22 -3 -22 5 0 7 -7 4 -15 -7 -13 -16 -16 -17 -25 -4 -5 8 -10 10
-10 4 0 -7 -7 -14 -15 -18 -13 -4 -13 -2 -5 14 15 27 12 37 -4 15 -7 -10 -21
-20 -30 -21 -13 -2 -15 1 -6 11 8 9 7 13 -2 12 -60 -2 -68 2 -68 37 0 39 -14
55 -28 30 -8 -15 -10 -15 -23 2 -8 11 -20 19 -26 20 -27 2 -31 4 -37 20 -5 14
-4 15 7 5 11 -9 17 -7 28 6 13 16 12 17 -3 4 -10 -7 -18 -9 -18 -3 0 5 -9 12
-21 15 -12 3 -18 10 -15 16 8 13 -31 54 -44 46 -5 -3 -12 5 -16 19 -3 15 -15
27 -32 31 -26 6 -27 7 -7 22 14 10 15 14 5 13 -27 -4 -38 0 -43 14 -4 9 2 12
17 11 13 -2 23 3 23 9 0 8 -12 12 -29 11 -37 -2 -46 13 -13 21 24 6 25 7 8 21
-14 11 -15 16 -5 20 9 3 7 10 -9 24 -12 10 -27 19 -33 19 -6 0 -4 5 4 10 15 9
13 11 -12 14 -6 0 -13 7 -16 15 -3 10 0 12 12 8 17 -7 20 1 8 21 -5 7 -16 10
-26 6 -9 -3 -16 -3 -15 2 4 23 -3 35 -23 44 l-23 9 24 0 c20 1 21 3 11 16 -10
13 -9 15 9 15 20 0 21 1 7 16 -9 8 -16 22 -16 30 0 8 -9 14 -19 14 -11 0 -23
9 -26 20 -3 11 -11 20 -16 20 -5 0 -9 5 -9 11 0 6 15 0 33 -12 l32 -23 -23 25
c-12 14 -19 29 -15 34 5 4 2 5 -5 1 -14 -9 -44 18 -34 30 4 5 -1 2 -11 -6 -16
-11 -18 -11 -15 1 2 8 10 19 18 26 11 9 12 12 2 13 -7 0 -10 5 -7 10 3 6 1 10
-5 10 -6 0 -8 5 -5 10 3 6 -1 10 -9 10 -9 0 -16 5 -16 11 0 6 -7 9 -15 5 -13
-5 -14 -2 -4 16 9 16 13 18 20 7 7 -11 9 -11 9 3 0 9 6 18 13 21 6 2 -7 3 -30
1 -34 -2 -43 1 -44 14 0 11 -2 12 -6 4 -2 -6 -9 -9 -14 -6 -6 3 -5 12 3 22 8
9 8 13 2 9 -15 -9 -28 23 -15 36 7 7 1 17 -15 30 -19 14 -24 26 -20 42 6 24
-19 44 -28 22 -3 -8 -8 -7 -16 5 -6 10 -17 15 -27 11 -11 -4 -14 -3 -9 5 5 8
0 12 -12 12 -11 0 -30 9 -43 20 -20 16 -21 19 -6 20 9 0 17 -4 17 -10 0 -5 7
-7 15 -3 15 5 12 18 -3 18 -4 0 -22 6 -40 14 -30 12 -31 15 -15 27 17 13 17
15 -7 33 -13 11 -28 17 -32 15 -4 -3 -8 4 -8 15 0 14 -5 19 -14 15 -11 -4 -13
0 -9 14 3 15 0 20 -12 19 -10 -1 -21 5 -25 13 -4 8 -12 26 -19 39 -9 16 -9 21
-1 16 12 -7 -9 35 -22 45 -4 3 -6 12 -6 20 2 33 -3 51 -12 45 -6 -3 -7 1 -4 9
3 9 -1 23 -10 32 -16 15 -15 17 1 30 15 11 15 14 3 14 -10 1 -9 4 5 11 17 8
16 9 -8 6 -22 -3 -25 -2 -16 9 6 7 8 26 4 42 -4 21 -1 34 10 46 10 9 12 16 5
16 -7 0 -5 6 4 16 20 20 20 25 -1 17 -11 -4 -14 -3 -9 5 4 7 13 12 21 12 7 0
23 14 35 30 13 19 30 30 43 29 20 -1 20 -2 -3 -8 -15 -4 -20 -10 -13 -14 6 -4
19 -4 29 0 12 4 15 3 10 -5 -5 -8 -2 -10 8 -6 11 4 16 0 17 -12 0 -17 1 -17 8
1 5 11 6 26 3 34 -3 9 0 12 9 9 8 -3 13 -11 12 -17 -5 -21 8 -11 17 15 11 27
30 24 30 -4 0 -15 -2 -15 -10 -2 -8 13 -10 12 -10 -3 0 -14 5 -17 21 -12 15 5
19 4 14 -4 -4 -7 -2 -18 5 -26 6 -7 10 -22 8 -32 -2 -12 3 -18 15 -16 10 0 16
-2 13 -5 -16 -15 21 -32 71 -32 33 0 52 -4 48 -10 -3 -6 1 -7 10 -4 8 4 32 3
52 -1 28 -5 33 -9 22 -16 -11 -8 -10 -10 6 -8 40 3 56 -1 49 -12 -3 -6 -19 -9
-35 -7 -19 3 -26 1 -20 -5 6 -6 61 -6 153 1 79 6 157 10 173 10 45 -1 75 5 75
14 0 4 9 8 19 8 11 0 23 5 26 10 3 6 19 10 35 10 32 0 156 61 149 73 -2 4 18
20 44 36 55 32 84 57 52 45 -11 -5 -31 -14 -45 -21 -31 -16 -50 -16 -29 0 45
34 81 68 77 72 -2 2 -24 -12 -48 -31 -70 -55 -91 -60 -35 -9 28 26 39 40 25
31 -36 -23 -53 -20 -73 14 -10 17 -22 30 -27 30 -4 0 -17 3 -27 7 -10 3 -15 3
-11 -2 4 -4 3 -14 -3 -21 -7 -8 -7 -14 1 -19 13 -8 13 -25 0 -25 -5 0 -10 6
-10 13 0 7 -9 18 -20 25 -32 20 -23 37 28 55 44 15 92 16 154 3 16 -4 44 0 65
9 21 9 47 14 59 11 14 -4 24 0 28 9 3 8 17 15 31 15 32 0 32 15 0 36 -14 9
-25 23 -25 30 0 8 -8 14 -18 14 -19 0 -142 86 -142 100 0 4 -9 6 -20 3 -11 -3
-20 0 -20 6 0 6 -9 11 -21 11 -15 0 -20 5 -17 23 2 22 -2 27 -23 27 -5 0 -7
-4 -4 -10 3 -5 1 -10 -4 -10 -6 0 -11 15 -12 33 l-1 32 -14 -30 -15 -30 6 34
c3 18 5 40 5 48 0 32 88 -10 165 -79 32 -29 56 -47 51 -40 -14 23 9 12 46 -23
32 -31 40 -34 57 -23 15 9 23 9 35 -2 9 -7 33 -14 53 -16 20 -1 40 -10 45 -19
5 -8 15 -12 21 -9 7 4 9 4 5 -1 -4 -4 -3 -14 3 -22 10 -11 15 -11 27 -1 13 11
14 11 7 -1 -5 -9 -3 -18 6 -25 8 -6 19 -20 25 -31 6 -11 14 -18 17 -15 2 3 14
-3 24 -13 11 -9 23 -14 26 -11 4 4 13 2 20 -5 11 -9 17 0 32 48 9 32 15 64 11
69 -3 6 -1 14 4 17 6 4 10 17 9 28 -4 52 2 98 11 92 6 -3 10 3 10 15 0 12 -4
18 -10 15 -6 -3 -7 1 -4 9 3 9 10 16 15 16 6 0 4 10 -2 23 -15 26 -14 27 2 38
17 10 20 40 7 57 -13 16 6 34 28 25 6 -2 15 1 19 6 3 6 11 8 17 5 7 -5 8 -2 4
5 -5 7 -14 10 -21 7 -8 -3 -19 2 -25 10 -10 11 -10 14 1 14 11 0 11 2 -1 10
-8 5 -11 12 -7 17 9 9 28 -17 21 -29 -5 -7 29 -12 40 -5 3 1 21 -14 41 -33 20
-19 38 -34 41 -32 2 1 4 0 4 -3 0 -3 0 -10 0 -16 0 -5 -4 -7 -10 -4 -5 3 -10
2 -10 -4 0 -6 11 -13 24 -17 16 -4 23 -11 19 -20 -3 -8 1 -14 10 -14 21 0 31
-18 19 -33 -11 -14 -4 -77 9 -77 4 0 6 -9 4 -20 -2 -11 1 -22 6 -25 5 -4 9
-18 9 -33 -1 -36 4 -65 14 -80 4 -6 4 -12 0 -12 -3 0 -2 -6 3 -12 6 -7 10 -25
9 -40 -1 -14 3 -24 8 -21 5 4 7 -3 4 -14 -3 -11 -2 -41 2 -66 5 -32 3 -47 -4
-47 -6 0 -4 -5 4 -10 8 -5 10 -10 4 -10 -7 0 -12 -10 -12 -22 0 -29 -8 -61
-21 -86 -5 -10 -8 -27 -7 -38 2 -10 -1 -25 -7 -31 -5 -8 -6 -18 -1 -25 5 -7 9
-25 8 -40 0 -16 4 -28 11 -28 20 0 46 -45 33 -58 -6 -6 -6 -12 3 -17 8 -5 10
-4 5 3 -4 7 -3 12 3 12 5 0 12 -8 16 -19 3 -10 15 -26 25 -36 17 -15 23 -16
33 -5 6 7 7 10 1 7 -6 -3 -11 0 -11 8 0 13 4 12 19 -2 10 -9 18 -12 18 -6 0 5
6 10 14 10 12 0 12 -7 1 -43 -10 -34 -10 -42 0 -38 7 3 16 0 21 -7 5 -8 3 -10
-5 -4 -9 5 -8 0 2 -16 8 -13 13 -32 12 -41 -2 -10 2 -18 8 -18 7 0 6 -4 -3
-10 -9 -6 -17 -5 -22 3 -6 9 -8 9 -8 0 0 -6 5 -15 10 -18 6 -4 8 -10 5 -15 -3
-5 -1 -19 5 -30 6 -11 7 -20 3 -20 -4 0 -9 -22 -10 -49 -2 -62 -36 -138 -77
-173 -17 -15 -35 -27 -39 -28 -5 0 -29 -12 -55 -27 -50 -30 -162 -57 -162 -40
0 6 -3 8 -6 4 -8 -8 -106 22 -125 39 -8 8 -20 14 -26 14 -6 0 -16 6 -22 14 -7
8 -23 17 -37 20 -14 4 -35 17 -47 30 -23 23 -63 44 -52 26 3 -6 1 -10 -5 -10
-7 0 -10 -6 -7 -14 3 -8 -3 -22 -14 -32 -10 -9 -17 -19 -15 -21 12 -12 -18
-64 -40 -69 -13 -3 -24 -10 -24 -15 0 -5 -8 -9 -19 -9 -27 0 -31 -37 -10 -101
10 -30 18 -61 18 -69 2 -33 113 -128 144 -122 4 1 7 -2 7 -6 0 -5 19 -17 42
-28 44 -20 45 -20 97 -22 25 -2 32 -6 27 -18 -3 -8 -2 -13 3 -10 10 7 74 -58
65 -67 -6 -6 27 -16 56 -16 8 0 30 -2 48 -4 18 -2 32 1 32 7 0 6 4 5 9 -3 8
-12 13 -12 35 2 14 10 27 13 31 7 3 -5 13 -6 21 -3 9 3 27 -3 42 -13 15 -11
40 -19 55 -19 20 1 26 -3 22 -13 -4 -12 -3 -13 10 -2 8 7 15 22 15 34 0 17 2
18 10 6 9 -13 10 -13 11 0 1 8 1 19 0 23 -1 5 3 6 9 2 5 -3 10 -1 10 5 0 6 4
9 9 5 5 -3 12 -1 16 5 3 5 15 10 25 10 11 0 19 7 19 18 -1 33 8 56 22 60 8 3
16 8 19 11 3 3 14 11 25 18 11 6 19 17 17 23 -2 7 3 10 12 7 10 -4 13 -1 9 9
-6 17 8 19 24 3 9 -9 11 -7 9 7 -2 11 5 34 16 51 11 18 20 44 22 57 1 14 9 33
17 42 10 13 10 15 1 10 -10 -6 -11 -1 -6 21 4 15 11 31 16 34 5 3 3 9 -5 12
-10 3 -13 13 -10 25 2 11 0 23 -5 26 -12 7 -4 46 9 46 5 0 9 5 9 11 0 6 -7 8
-16 5 -9 -3 -12 -2 -9 5 4 5 1 16 -5 24 -10 12 -9 16 4 21 10 4 15 12 12 19
-2 7 4 21 14 30 11 10 17 22 14 27 -3 5 -11 2 -18 -7 -11 -16 -13 -15 -27 1
-12 16 -12 17 1 9 12 -7 13 -6 3 7 -7 8 -9 19 -5 23 4 5 2 5 -4 2 -21 -12 -22
29 -2 42 17 10 18 15 6 28 -9 12 -9 15 -1 9 7 -4 21 -2 30 4 14 8 14 10 3 9
-36 -3 -40 0 -28 26 6 14 19 25 30 25 10 0 18 4 18 9 0 5 -8 7 -19 4 -16 -4
-18 1 -17 30 1 22 8 40 19 46 11 7 17 8 17 1 0 -5 6 -9 13 -7 6 1 11 -4 9 -11
-1 -8 3 -12 10 -9 7 2 12 10 10 16 -1 7 1 10 6 7 4 -2 14 -1 21 3 10 7 9 13
-5 29 -10 12 -21 19 -26 16 -4 -3 -5 1 -2 9 5 15 34 19 34 5 0 -12 48 -10 55
2 7 12 -21 61 -33 58 -4 -1 -19 5 -34 12 -20 9 -25 17 -18 25 5 7 7 15 4 18
-4 3 9 2 29 -4 23 -6 44 -6 61 1 14 5 26 7 26 4 0 -4 6 -1 14 5 11 9 13 5 12
-21 -1 -20 4 -32 10 -31 7 1 15 -9 18 -24 4 -14 9 -23 12 -21 9 9 -16 59 -26
53 -5 -3 -10 -1 -10 4 0 6 3 11 8 12 4 0 17 2 29 3 13 2 19 -2 16 -7 -4 -6 1
-8 11 -4 10 4 15 3 11 -3 -4 -6 5 -7 23 -4 35 7 56 -14 23 -23 -25 -6 -18 -23
10 -23 11 0 31 -7 44 -16 14 -9 33 -14 44 -11 15 3 17 0 13 -17 -5 -18 -3 -19
11 -8 9 8 24 12 34 9 14 -3 10 -7 -14 -17 -34 -13 -41 -24 -21 -36 7 -4 8 -3
4 4 -5 8 2 12 18 12 21 0 25 -4 23 -22 -1 -17 3 -23 15 -22 10 1 15 -2 12 -7
-8 -13 -21 -11 -39 7 -13 14 -14 19 -3 25 9 6 9 9 1 9 -6 0 -15 -5 -18 -10 -4
-6 -16 -10 -27 -8 -12 2 -22 -3 -24 -10 -1 -7 0 -8 2 -3 4 7 10 6 19 -2 7 -7
11 -15 8 -19 -10 -17 8 -28 28 -18 10 6 19 7 18 3 -4 -26 3 -43 19 -43 15 0
15 2 2 11 -11 8 -8 9 16 5 22 -3 37 0 52 14 18 17 22 17 32 5 13 -15 4 -20
-28 -16 -7 1 -15 -5 -18 -14 -3 -8 -12 -15 -19 -15 -25 0 -24 -15 0 -16 15 -1
26 5 28 15 4 12 5 11 6 -4 0 -12 -5 -27 -12 -35 -7 -8 -3 -7 12 3 13 8 30 13
39 10 11 -5 13 -3 7 6 -6 10 -3 11 14 2 12 -7 21 -8 21 -2 0 5 -6 12 -12 14
-10 4 -10 6 -1 6 24 2 26 -23 3 -41 l-24 -19 30 5 c16 4 23 3 16 0 -6 -3 -10
-10 -6 -15 3 -5 -1 -9 -8 -8 -20 1 -50 14 -49 22 3 25 0 31 -9 17 -10 -17 5
-40 26 -40 8 0 14 -5 14 -11 0 -5 -4 -7 -10 -4 -6 3 -7 -1 -4 -9 3 -9 12 -16
20 -16 8 0 14 -4 14 -10 0 -11 -22 -9 -30 2 -3 3 -21 3 -40 -1 -26 -5 -31 -9
-17 -14 9 -3 24 -4 32 -1 8 4 15 2 15 -2 0 -11 -20 -42 -20 -32 0 5 -8 0 -18
-10 -11 -9 -17 -20 -15 -24 2 -4 57 37 121 90 64 54 136 113 160 132 42 33 43
34 20 44 l-23 9 23 5 c13 2 26 10 28 17 3 8 13 11 22 8 12 -5 14 -2 9 11 -4
10 -3 15 3 11 6 -3 10 -2 10 4 0 6 -12 13 -27 16 -16 4 -37 8 -47 10 -11 2
-27 -1 -35 -8 -12 -10 -14 -9 -8 5 4 12 2 15 -7 12 -22 -9 -29 15 -10 34 17
16 17 17 -4 20 -12 2 -22 7 -22 10 0 15 40 41 54 36 8 -3 17 -1 20 5 4 6 18 6
38 0 33 -9 53 -4 24 7 -9 3 -13 10 -10 15 3 5 -2 6 -11 3 -8 -4 -22 -1 -30 6
-8 6 -19 9 -25 5 -5 -3 -10 0 -10 9 0 15 16 16 39 2 10 -7 12 -5 6 4 -6 9 -2
10 16 5 27 -8 24 -8 64 -5 26 1 27 3 10 9 -11 5 -24 5 -30 1 -12 -10 -55 6
-55 20 0 5 3 9 8 9 4 -1 21 0 37 1 26 2 24 3 -18 15 -73 20 -70 28 8 22 56 -4
63 -3 35 5 -55 15 -55 25 -1 32 55 7 67 22 24 29 -26 4 -26 4 5 6 17 0 32 -3
32 -9 0 -5 4 -10 10 -10 16 0 7 24 -12 32 -10 4 -18 12 -18 18 0 5 8 10 18 10
14 0 15 -2 2 -10 -12 -7 -10 -9 8 -7 25 1 27 7 10 26 -11 11 -4 13 40 9 47 -5
50 -4 32 9 -11 8 -33 13 -48 10 -15 -2 -21 -2 -14 0 7 3 9 9 6 15 -4 6 -2 8 3
5 6 -4 16 0 23 8 10 12 9 15 -4 15 -9 0 -16 4 -16 9 0 15 27 20 40 8 10 -9 11
-9 6 1 -4 6 -3 12 2 12 5 0 8 14 6 30 -2 16 1 30 6 30 6 0 10 -4 10 -9 0 -5 6
-8 13 -7 30 6 93 27 106 35 20 13 2 34 -25 28 -13 -2 -21 0 -18 4 3 5 21 9 41
9 28 0 34 -3 29 -16 -3 -8 -2 -12 4 -9 6 3 10 1 10 -5 0 -6 4 -9 9 -6 5 4 11
1 13 -5 3 -9 9 -9 26 0 18 10 21 9 15 -5 -3 -9 0 -19 6 -24 7 -4 14 -23 15
-42 2 -28 -1 -34 -17 -35 -27 -3 -32 -10 -17 -28 9 -11 17 -12 30 -5 29 16 37
12 12 -6 -21 -15 -22 -17 -7 -34 15 -16 11 -55 -5 -45 -4 3 -10 -3 -12 -13 -4
-12 1 -18 14 -19 10 -1 16 2 13 7 -3 5 -1 11 5 15 17 10 11 -17 -7 -38 -29
-33 0 -17 157 85 185 121 351 222 725 440 453 265 684 416 670 438 -7 12 -15
13 -14 3 3 -20 -2 -23 -16 -9 -8 8 -15 19 -15 25 0 6 -16 28 -36 48 -36 38
-61 80 -59 98 0 6 5 18 11 28 10 17 11 17 35 -2 23 -18 87 -121 75 -121 -3 0
7 -13 22 -28 l27 -29 42 35 c66 53 149 161 189 245 91 192 44 411 -151 702
-147 221 -318 401 -580 610 -426 340 -918 641 -1560 956 -987 483 -1970 785
-2814 864 -179 16 -605 19 -751 4z m1479 -2086 c10 9 12 9 9 -2 -2 -7 3 -16
11 -19 10 -3 12 0 7 13 -5 15 -4 16 8 6 8 -7 21 -9 27 -5 8 4 9 3 5 -4 -4 -7
-3 -12 3 -12 5 0 11 5 13 12 3 7 7 5 11 -6 4 -9 3 -15 -2 -11 -5 3 -12 1 -15
-4 -8 -12 -69 -6 -74 7 -3 11 -42 4 -42 -9 0 -4 8 -8 18 -8 19 0 39 -4 65 -16
9 -4 23 -5 31 -2 8 3 17 0 20 -8 3 -10 -2 -12 -22 -9 -15 3 -24 2 -21 -1 4 -3
19 -8 34 -11 21 -4 26 -1 22 10 -4 9 3 16 19 19 13 2 24 0 24 -4 0 -5 7 -9 16
-9 8 0 12 -4 9 -10 -3 -5 1 -10 11 -10 14 0 14 -3 4 -15 -11 -13 -15 -13 -21
-3 -6 8 -9 9 -9 2 0 -14 -32 -13 -42 1 -4 6 -8 2 -8 -7 0 -12 8 -18 23 -18 13
0 29 -6 36 -12 9 -8 11 -8 8 -2 -4 7 0 14 8 18 9 3 15 0 15 -9 0 -8 11 -17 25
-21 14 -3 26 -12 26 -20 1 -8 3 -18 4 -24 1 -5 3 -14 4 -20 0 -5 8 -7 16 -4 8
4 15 1 15 -6 0 -10 3 -10 15 0 8 7 15 9 15 5 0 -4 7 -2 15 5 12 10 15 9 15 -5
0 -10 -3 -15 -6 -12 -4 3 -15 2 -26 -4 -11 -6 -17 -13 -14 -16 3 -4 0 -13 -7
-21 -11 -13 -9 -14 10 -2 12 8 19 18 16 24 -3 5 -1 6 6 2 6 -4 9 -11 6 -16 -3
-4 1 -10 7 -13 9 -3 6 -8 -7 -13 -30 -13 -29 -33 1 -28 23 4 24 2 22 -30 -2
-32 -13 -42 -13 -13 0 7 -6 12 -12 11 -37 -3 -43 -5 -43 -14 0 -7 6 -7 18 -1
14 7 21 5 31 -10 10 -18 15 -19 28 -7 13 10 17 10 20 1 3 -7 13 -13 23 -13 10
0 22 -6 26 -12 4 -7 4 -10 -1 -6 -4 4 -14 0 -22 -10 -14 -16 -14 -16 -9 1 5
14 2 16 -13 8 -10 -6 -21 -7 -25 -4 -3 3 -6 2 -6 -4 0 -6 9 -13 21 -16 15 -4
19 -11 14 -25 -7 -24 13 -40 27 -21 8 11 9 10 4 -3 -4 -13 0 -18 12 -18 14 0
14 -2 3 -9 -8 -5 -19 -7 -26 -5 -6 3 -12 -1 -12 -9 0 -8 9 -14 21 -13 13 1 22
-6 24 -18 3 -13 0 -17 -10 -13 -8 3 -15 -1 -15 -9 0 -7 4 -11 8 -9 3 3 12 -2
19 -10 7 -8 20 -15 29 -14 12 0 11 2 -4 9 -20 8 -19 9 1 9 12 1 27 -6 34 -14
11 -13 15 -13 21 -3 7 11 9 11 9 0 0 -7 4 -11 9 -8 5 3 11 -1 15 -9 3 -8 1
-15 -4 -15 -5 0 -7 -8 -4 -17 5 -15 4 -15 -4 -3 -6 8 -8 18 -6 22 7 12 -19 9
-36 -3 -12 -9 -12 -10 3 -5 13 4 20 0 24 -14 3 -10 14 -22 25 -26 15 -4 17 -9
7 -20 -6 -7 -16 -11 -22 -7 -16 10 -47 11 -47 3 0 -4 8 -14 17 -21 9 -8 14 -9
10 -2 -5 7 0 9 14 6 14 -4 17 -8 9 -13 -9 -6 -9 -13 -1 -26 7 -13 10 -14 11
-5 0 8 3 11 7 8 3 -4 -1 -15 -10 -25 -16 -18 -15 -18 16 -14 17 3 35 11 40 18
4 7 13 12 20 10 49 -15 50 -16 36 -32 -7 -8 -20 -13 -30 -11 -13 4 -16 0 -11
-12 5 -14 4 -14 -13 -1 -17 14 -18 13 -12 -2 5 -14 1 -17 -15 -15 -11 1 -23
-4 -26 -12 -3 -10 1 -12 17 -8 11 3 19 1 15 -4 -3 -5 0 -9 5 -9 6 0 11 6 11
13 0 9 2 9 9 -1 4 -8 11 -13 15 -12 3 1 20 -1 36 -5 37 -8 52 -28 16 -21 -14
3 -28 0 -31 -5 -4 -5 -1 -9 5 -9 6 0 8 -5 5 -10 -9 -14 17 -38 35 -33 13 4 13
3 0 -6 -12 -9 -23 -2 -56 35 -24 27 -41 39 -41 30 0 -8 4 -13 8 -11 10 7 20
-25 12 -38 -10 -15 -35 -16 -46 -2 -5 6 -7 4 -4 -5 2 -8 11 -14 19 -12 9 1 18
-5 22 -13 3 -9 10 -13 16 -10 6 4 7 -1 3 -10 -5 -14 -8 -14 -15 -3 -6 8 -8 -1
-6 -29 2 -24 1 -43 -2 -43 -4 0 -5 -13 -4 -29 1 -21 -3 -31 -16 -34 -13 -3
-17 0 -13 10 4 11 0 14 -13 11 -13 -2 -19 -12 -19 -30 1 -15 -3 -24 -7 -22
-11 7 -40 -55 -32 -68 5 -7 2 -9 -8 -5 -9 3 -21 0 -27 -6 -9 -9 -11 -7 -8 9 1
11 18 35 37 53 19 18 30 30 23 27 -6 -3 -13 -3 -16 1 -2 5 -2 2 -1 -4 2 -7 -7
-18 -19 -24 -19 -10 -20 -10 -10 2 9 11 7 14 -13 14 -25 0 -34 -20 -12 -27 9
-3 9 -6 0 -12 -7 -4 -14 3 -18 19 -3 14 -10 25 -15 25 -5 0 -6 -7 -3 -15 4 -8
1 -15 -6 -15 -6 0 -9 4 -5 9 3 5 1 12 -5 16 -16 10 -12 28 5 21 8 -3 15 -1 15
4 0 6 10 6 26 0 14 -6 24 -7 22 -3 -2 5 -10 21 -18 36 -12 25 -12 30 0 37 11
7 9 9 -8 7 -12 0 -22 -5 -22 -10 0 -4 -5 -5 -10 -2 -6 4 -8 10 -5 15 3 5 -8 2
-25 -6 -16 -9 -30 -18 -30 -20 0 -3 5 -2 12 2 7 5 8 3 4 -5 -5 -7 -14 -10 -22
-7 -12 4 -12 2 -4 -14 10 -18 9 -19 -17 -9 -15 6 -36 17 -45 26 -9 8 -22 12
-27 8 -6 -3 -19 -8 -28 -9 -21 -4 -48 20 -33 29 6 3 10 2 10 -3 0 -6 7 -13 16
-16 13 -5 14 -4 6 7 -7 8 -8 18 -4 22 4 5 1 5 -5 1 -8 -4 -13 -2 -13 6 0 8 -3
9 -8 3 -4 -5 -15 -16 -24 -23 -15 -12 -20 -12 -33 2 -14 14 -19 14 -39 1 -12
-8 -25 -12 -28 -9 -11 10 -70 16 -64 6 3 -6 -1 -13 -10 -16 -8 -3 -13 -2 -10
2 2 4 -19 7 -47 8 -65 0 -136 11 -151 23 -6 4 -31 11 -56 14 -45 6 -99 18
-245 56 -100 26 -132 26 -253 0 -66 -14 -127 -36 -192 -68 -52 -27 -106 -52
-120 -56 -22 -7 -23 -6 -11 9 12 14 12 16 -2 11 -17 -7 -32 10 -17 20 6 4 7
11 4 17 -5 7 0 9 13 6 17 -4 19 -1 15 20 -4 19 -2 23 9 17 8 -4 4 2 -8 14 -25
23 -30 37 -11 25 8 -5 9 0 6 14 -4 12 -3 24 2 27 4 2 6 16 5 30 -2 14 3 29 12
34 14 7 14 11 -1 33 -15 23 -15 26 -1 32 9 3 14 2 10 -3 -3 -5 2 -8 11 -7 21
3 39 33 20 33 -8 0 -12 -7 -9 -16 4 -13 2 -13 -10 1 -8 10 -17 15 -21 11 -4
-4 -4 1 0 10 3 10 9 15 12 12 3 -3 11 9 17 27 7 24 16 33 32 32 13 0 19 4 16
13 -3 7 -1 13 5 13 5 0 12 -7 16 -15 3 -9 17 -14 33 -14 22 1 24 3 6 6 -18 4
-20 8 -13 33 9 30 -1 47 -20 35 -15 -10 -12 5 6 22 14 14 16 14 29 -3 8 -11
12 -28 10 -39 -3 -11 -2 -14 1 -7 5 10 9 9 19 -4 13 -18 55 -30 55 -16 0 17
-14 21 -28 9 -13 -10 -15 -9 -8 8 4 11 4 16 0 12 -8 -8 -37 30 -41 51 -1 9 5
12 18 9 10 -3 19 -1 19 3 0 5 11 7 25 5 36 -3 39 8 9 36 -22 20 -24 21 -18 4
7 -17 6 -18 -8 -5 -18 17 -13 41 7 34 25 -10 40 54 16 72 -12 10 -8 11 19 8
19 -2 42 -6 50 -9 9 -3 7 1 -4 10 -11 8 -24 15 -29 15 -5 0 2 9 16 20 14 11
31 20 38 20 10 0 10 3 1 12 -9 9 -17 6 -37 -12 -14 -13 -28 -20 -32 -17 -3 4
-1 7 6 7 7 0 10 3 8 8 -3 4 11 15 30 25 19 9 32 13 28 7 -6 -10 11 -14 50 -12
47 3 52 6 47 26 -3 13 -1 17 6 12 7 -4 12 -3 12 2 0 5 12 9 27 8 21 -1 27 4
28 22 1 12 -3 22 -9 21 -6 -1 -20 -1 -31 1 l-20 1 20 8 c11 5 28 4 38 -1 21
-11 47 5 47 28 0 19 17 17 30 -3 11 -17 11 -17 6 0 -6 19 12 24 20 4 5 -15 54
-21 54 -7 0 6 -4 10 -10 10 -5 0 -10 5 -10 11 0 5 4 8 9 5 5 -4 7 3 4 15 -3
11 -12 23 -19 26 -10 4 -11 10 -4 23 5 9 7 20 4 22 -2 3 7 3 21 1 17 -4 25 -1
25 9 0 22 -12 29 -27 17 -16 -14 -17 -5 -3 21 7 12 17 17 28 14 14 -5 14 -4 2
4 -8 6 -17 9 -20 7 -9 -6 -6 63 4 72 4 4 6 -7 3 -25 -3 -19 -3 -31 1 -27 4 4
7 12 7 18 0 20 26 19 32 -2 3 -11 9 -19 13 -16 5 3 11 1 15 -5 3 -5 -1 -10
-10 -10 -9 0 -13 -4 -10 -10 3 -5 1 -18 -5 -27 -11 -17 -11 -17 -6 0 3 11 2
15 -4 12 -16 -10 -11 -47 8 -61 15 -12 12 -13 -22 -10 -21 3 -35 2 -31 -2 4
-4 11 -8 16 -8 5 -1 10 -2 12 -3 9 -8 47 -9 47 -1 0 5 16 7 36 5 22 -3 33 -1
29 5 -3 6 1 7 9 4 11 -4 16 0 16 10 0 9 4 16 9 16 5 0 8 8 6 18 -1 9 -8 16
-14 15 -6 -2 -11 1 -11 5 0 5 -10 8 -22 6 -13 -1 -27 -3 -31 -3 -5 -1 -5 -6
-1 -13 4 -7 3 -8 -4 -4 -6 4 -8 14 -5 23 5 12 3 14 -7 8 -9 -5 -11 -4 -6 4 4
6 21 18 37 27 29 15 31 14 36 -5 3 -12 10 -21 15 -21 5 0 6 5 3 10 -3 6 -4 10
-1 10 2 0 12 3 22 7 14 5 16 3 11 -12 -6 -14 -5 -15 6 -7 8 7 18 7 27 2 8 -6
20 -10 25 -10 6 0 3 5 -5 10 -12 7 -8 11 17 16 21 4 30 11 26 18 -4 6 0 5 9
-2 18 -15 34 0 22 20 -4 7 -3 8 4 4 7 -4 12 -13 12 -19 0 -7 9 -13 20 -14 18
-2 19 0 5 13 -30 30 -6 52 31 29 16 -11 24 -11 33 -2z m-460 -1573 c18 11 91
1 118 -16 12 -8 31 -14 43 -14 24 0 26 -26 4 -55 -13 -17 -16 -18 -24 -5 -5 8
-10 24 -10 35 -1 13 -6 7 -17 -18 -18 -43 -43 -47 -54 -7 -6 22 -7 23 -8 4 -1
-22 -25 -39 -42 -28 -5 3 -9 15 -10 27 l0 22 -9 -21 c-5 -14 -16 -21 -32 -20
-13 1 -35 -1 -49 -5 -16 -4 -32 -2 -38 4 -9 9 -14 9 -20 -1 -4 -7 -12 -12 -17
-11 -5 1 -22 -1 -38 -6 -24 -7 -33 -4 -47 14 -10 12 -16 28 -13 36 3 7 42 25
87 39 98 30 127 35 148 25 8 -4 21 -4 28 1z m1670 -271 c-28 -32 -55 -59 -60
-59 -14 0 -11 -60 4 -61 6 -1 48 -2 92 -3 87 -1 100 -6 108 -36 4 -17 0 -20
-24 -20 -20 0 -29 -5 -29 -16 0 -12 -8 -14 -33 -10 -19 3 -44 -1 -60 -9 -16
-8 -29 -10 -32 -4 -4 5 -17 7 -31 5 -21 -4 -25 -1 -22 17 2 18 -1 22 -20 20
-16 -2 -21 1 -16 10 4 6 -2 4 -13 -6 -11 -9 -23 -14 -26 -11 -4 4 1 13 11 20
15 12 15 13 -5 9 -16 -3 -23 1 -23 11 0 8 4 13 9 9 6 -3 6 6 1 24 -7 26 -4 36
21 68 34 42 92 74 82 45 -6 -16 -5 -16 13 0 10 9 26 18 34 20 8 2 23 13 34 25
12 12 24 19 29 16 4 -2 -15 -31 -44 -64z"/>
</g>
</svg>
